<mxfile host="Electron" agent="Mozilla/5.0 (Windows NT 10.0; Win64; x64) AppleWebKit/537.36 (KHTML, like Gecko) draw.io/27.0.2 Chrome/134.0.6998.205 Electron/35.3.0 Safari/537.36" version="27.0.2">
  <diagram name="Page-1" id="wNPbptNAulvvEI_vAwuY">
    <mxGraphModel dx="1213" dy="722" grid="1" gridSize="10" guides="1" tooltips="1" connect="1" arrows="1" fold="1" page="1" pageScale="1" pageWidth="850" pageHeight="1100" math="0" shadow="0">
      <root>
        <mxCell id="0" />
        <mxCell id="1" parent="0" />
        <mxCell id="5gWIiFmokeseENjzaCDC-6" value="" style="rounded=0;whiteSpace=wrap;html=1;fillColor=none;strokeColor=none;" vertex="1" parent="1">
          <mxGeometry x="65" y="190" width="700" height="410" as="geometry" />
        </mxCell>
        <mxCell id="5gWIiFmokeseENjzaCDC-1" value="" style="shape=image;verticalLabelPosition=bottom;labelBackgroundColor=default;verticalAlign=top;aspect=fixed;imageAspect=0;image=data:image/png,iVBORw0KGgoAAAANSUhEUgAAASEAAADrCAYAAAAmGSB9AAAlzklEQVR4Xu2dfZCdZXnG93zu99mPbDabTxIS8kWyJEEgwQIFRT5EFExRUBCKiMpH67QJtrHTIoJAsCkOQjEww3SmndqZ6jidqq2j5Q/r1LG1TscZ/2l1HDva+sGIAiHZ7Hl7ruN5w9nr3n3O7vu8Oed6T59r5jeSc+53/d3PfZ8nCSSzPT1LyMSmLdeW+gdO1v4xUqU8NBTVHM3rShTKvTXHfvO6GoW+vld72pjB8fE3Ffv6Z3rmcVEhC7MbXD4ZlQYGzetq5Mvll3uWElxAvZWRmWsefza64/lvS7Lntvcf7xsZjd765F+Y91TYd9fBY73DlUj5HK858szx0uBQfBm0JYOTk1eUh4aPK5/L3nsPzqjP7nW3332yf3Rc+jNw6R9+7OeloUr8i5nFJQsX0M533HJiYNlEtP+5vzXvqXDh3dm5gDZ/8GD8M9ZpT7iA0mH6xttmByaWS38G9t114IXyyNjJ7QceWPx+ZeEC2vrm608MTa2K3vnXXzDvqbDv7gOZuoD2fOLZxS+JR8IFlA7b3rL/5PDK1dKfgd03v+/F3mXLZ3YcemTx+7Vsy/a3Sl9A//Tv0ZmXXD4zesaZ0bs/9xX7vghZvIAWvSQeCRdQCtQ+Axsvu3J27MxNup+BmuO2a/f/cmD12hM7/+TI4vdL/QK6/Sv/Fq0+b9/M8q1nR+/5+6+Z91XIwgX05iNHX+ULaFFL4pEsXED77r1P+gLCZ2Dt+a+fnTx7WvYzAMczL33TS0MbNr16zoNPLH6/1C+g2/7hG9HkjnNOrtpzfv2f+X0VahfQK8pLDBa6gFouiUcGJ1deUTuXE8rnon4BYe+nduyaXXPePtnPALxqfq+MbNt5bNfDTy1+vya37Xyb8gWEG3984+bZ9RddVr9l+X0Vsn4BOZfEI+EC8gefgWWbtlRrv8KQ/QzAccX2na9OnLv35d2Hj5rdWnC/1C8g/J63snrt7OYrr63/PpPfV2HfPb+f+QtowSXxSLiA/MFnYGTtGdWtb3m77GcAjmMbNh2fuviNL+157BmzVwvul/oFhH/rPzgxObvjt95V5feU2Hv3gZeVlxi8+c+OHmt1Ac27JB7JxAV0930nlGdX/wwsX1Hd9a7bzXsqwHF45eqZNVe+7UXeJ6aneb/ULyD8uYe+0bHqub/9gXABebLYC8gsiUcqK9dcGS4gP/AZ6B8br57//g+Z91SA48DE8pPr97/7F7xL89ET75f6BYQ/+Vlbjuq+ew5qX0B3ddcFNGdJPJKFC+jCe7QvoPpnoDJSvejAH5v3VIBj7RcKJzfe8oEXeI8Woifer0Jv34nGDwIeFHp7zWuKLPYCmrMkHqmdy/GeeTyUkJ9dLmdfE2Trnb/3c94hF43n6oku+fw/y6LuF5MFTzjyIrhoXhKPGA811B3V/QAceX9agWcysSTqfjFZ8FzqojQviUeMhxrqjup+AI68P63AM5lYEnW/mCx4LnVRmpfEI8ZDDXVHdT8AR96fVuCZTCyJul9MFjyXuijNS+IR46GGuqO6H4Aj708r8EwmlkTdLyYLnktdlOYl8YjxUEPdUd0PwJH3pxV4JhNLou4XkwXPpS5K85J4xHiooe6o7gfgyPvTCjyTiSVR94vJgudSF6V5STxiPNRQd1T3A3Dk/WkFnsnEkqj7xWTBc6mL0rwkHjEeaqg7qvsBOPL+tALPZGJJ1P1isuC51EVpXhKPGA811B3V/QAceX9agWcysSTqfjFZ8FzqojQviUeMhxrqjup+AI68P63AM5lYEnW/mCx4LnVRmpfEI8ZDDXVHdT8AR96fVuCZTCyJul9MFjyXuijNS+IR46GGuqO6H4Aj708r8EwmlkTdLyYLnktdlOYl8YjxUEPdUd0PwJH3pxV4JhNLou4XkwXPpS5K85J4xHiooe6o7gfgyPvTCjyTiSVR94vJgudSF6V5STxiPNRQd1T3A3Dk/WkFnsnEkqj7xWTBc6mL0rwkHjEeaqg7qvsBOPL+tALPZGJJ1P1isuC51EVpXhKPGA811B3V/QAceX9agWcysSTqfjFZ8FzqojQviUeMhxrqjup+AI68P63AM5lYEnW/mCx4LnVRmpfEI8ZDDXVHdT8AR96fVuCZTCyJul9MFjyXuijNS+IR46GGuqO6H4Aj708r8EwmlkTdLyYLnktdlOYl8YjxUEPdUd0PwJH3pxV4JhNLou4XkwXPpS5K85J4xHiooe6o7gfgyPvTCjyTiSVR94vJgudSF6V5STxiPNRQd1T3A3Dk/WkFnsnEkqj7xWTBc6mL0rwkHjEeaqg7qvsBOPL+tALPZGJJ1P1isuC5lEXZcu+hKF+uf1NA3xgPNdQd1f0AHHmHXOCbcOaKxWOZWBJ1v5gseC52UbYfeCAqDVei4sBQuIQEUPcDcOQ9WghcQIW+/leLfX1vyMSSqPvFZMFzMYuy49AjUXlkLNpw8531+nhJPGI81FB3VPcDcORdmo/5LiD5JVH3i8mCZ6tFmb7/SNQ7vjxa9/ab6z9GffOiJIzxUEPdUd0PwJH3iVnoAkLMF1RC3S8mC55w5MWIOefBJ6L+qdXVVVded+o11M9dlUQxHmqoO6r7ATjyTi1wAV1G+1GP+YJKqPvFZMETjrwcYNfDT0WDZ2yMJi+6fM7rqJ+7KoliPNRQd1T3A3DkvVrsBYSYL6iEul9MFjzhyAuy+/DRaHjz9ur4ufuiPY89Ey4hQdT9ABx5txZ7ASHmCyqh7heTBU84zlmS2qUzOr2nWtk2Xb+MeIFQP3dVEsV4qKHuqO4H4Mj7s9gLCDFfUAl1v5gseMKxeUmWnX9RNLRhU/23Y7xA4RLSQd0PwDHpBYSYL6iEul9MFjzhGC/J5MWXV/tXrqn/C2m+fMIlpIW6H4Bj0gsIMV9QCXW/mCx4whFLsvKKt1bL4xP1/yTPF0+4hPRQ9wNwnHMBFYuX0h44Y76gEup+MVnwhOOaa99ZLVVG6n8okS8dBvVzVyVRjIca6o7qfgCOjQvo2FIvIMR8QSXU/WKy4AnH4uBQ/a9l8IUzH6ifuyqJYjzUUHdU9wNwTHoB9eQKxXjZAh7kCgXzmhy5XP0vpvJlsxCN57yShXORd6zNzbwmRu0MX0p0ATVibjU14MgfEBeo5ybbEOOtBhz5rFygnptMEOOhBhy5dxeo5yZD/GKGogYceRFcoJ6bbEOMtxpw5LNygXpuMkGMhxpw5N5doJ6bDPGLGYoacORFcIF6brINMd5qwJHPygXquckEMR5qwJF7d4F6bjLEL2YoasCRF8EF6rnJNsR4qwFHPisXqOcmE8R4qAFH7t0F6rnJEL+YoagBR14EF6jnJtsQ460GHPmsXKCem0wQ46EGHLl3F6jnJkP8YoaiBhx5EVygnptsQ4y3GnDks3KBem4yQYyHGnDk3l2gnpsM8YsZihpw5EVwgXpusg0x3mrAkc/KBeq5yQQxHmrAkXt3gXpuMsQvZihqwJEXwQXquck2xHirAUc+Kxeo5yYTxHioAUfu3QXquckQv5ihqAFHXgQXqOcm2xDjrQYc+axcoJ6bTBDjoQYcuXcXqOcmQ/xihqIGHHkRXKCem2xDjLcacOSzcoF6bjJBjIcacOTeXaCemwzxixmKGnDkRXCBem6yDTHeasCRz8oF6rnJBDEeasCRe3eBem4yxC9mKGrAkRfBBeq5yTbEeKsBRz4rF6jnJhPEeKgBR+7dBeq5yRC/mKGoAUdeBBeo5ybbEOOtBhz5rFygnptMEOOhBhy5dxeo5yZD/GKGogYceRFcoJ6bbEOMtxpw5LNygXpuMkGMhxpw5N5doJ6bDPGLGYoacORFcIF6brINMd5qwJHPygXquckEMR5qwJF7d4F6bjLEL2YoasCRF8EF6rnJNsR4qwFHPisXqOcmE8R4qAFH7t0F6rnJEL+YoagBR14EF6jnJtsQ460GHPmsXKCem0wQ46EGHLl3F6jnJkP8YoaiBhx5EVygnptsQ4y3GnDks3KBem4yQYyHGnDk3l2gnpsM8YsZihpw5EVwgXpusg0x3mrAkc/KBeq5yQQxHmrAkXt3gXpuMsQvZihqwJEXwQXquck2xHirAUc+Kxeo5yYTxHioAUfu3QXquckQv5ihqAFHXgQXqOcm2xDjrQYc+axcoJ6bTBDjoQYcuXcXqOcmQ/xihqIGHHkRXKCem2xDjLcacOSzcoF6bjJBjIcacOTeXaCemwzxixmKGnDkRXCBem6yDTHeasCRz8oF6rnJBDEeasCRe3eBem4yxC9mKGrAkRdhIfBdIHP5fLwobYW91YAjn9dC4PuT5ctlPOMb46EGHLl/F6jnJkP8YoaiBhx5EeYDF1BxYCi68uEnojue/3Zb6aZzxHdoxXdqzZd70/iwGQ814MhnMB9bfudQVOjtMz/5KFL7ibjKrymSKxR+0YN/4KGoAUdeCKZ+AQ3iAvqUuSDaQbecI75HfWm4Ek1dfPkrjUXxjfFQA458Dsz2g7++mC/5gwfM7JXYd8/BKF8sRVd8/JPmPSWuefzZqDw0fAJn3xVL8toF1P5fAcV0wzlO338kKo+ORxN79r2KH8cL4hnjoQYc+Sya2fGRw1GpMlL/gPPclYgvoKs+8XSV31MivoA233VwFmef+SVRuIBA1s/xnAefiPomV0aVLdtPxK/FC+IZ46EGHPk8YqY/+njUOz4RnXvbB8zMlcjiBdS8Y2Yoaiy0JKcuoEc6ewGBLJ/jroefigbWro8G16ybaX49XhDPGA814MhnUj+Xh56MBqZWRzuuv9HMW4msXkDNO2aGosZ8S6J0AYGsnuPuw0ej4U1bq70Tkyf31P65+b14QTxjPNSAozmXR5+Ohs44M9p0+ZvNrJU4dQH96aczdwE175gZihq8JGoXEMjiOe557JlobOeeaqkyMrvrkafNBzFeEM8YDzXgyOcysuXsaN3ei6L3fvVbZtYqZP0Cat4xMxQ1mpdE8QICWTtHsPyC35gtDAxUpx/4pLmAmhfEM8ZDDTg2971s13nR1M7d0e1f/qaZswr1C6iE34J92rynxGsX0H3mAmreMTMUNeIlOXUBPdqZ/wzvIkvnCFZedtVsvtxb3fFHh81i8IJ4xnioAce45xX7LonGN26Obv3i182MVeiWC6h5x8xQ1ICj8gUEsnKOGPy6a284mSsU63/2hZdivgXxjPFQA47od/Ubro4qq9ZEN3/+eTNfFbrpAsrcJaR8AYGsnOPGd94+k8sXos13f9gsBBMviGeMhxpwXHfN/mhgYjK68TNfMrNVodsuoMxcQvjzK/liMbrq8JOmWRVw6OrnCOCIv1e38bZ7zDLMR7wgnjEeavSPL4v6Rsei/c991sxWhfgCuvoTT5v3lIgvoLMWcQGd2rFCX3+8bAEPOvWXZpfKuhtuNYuwEI1nvJKFv2uVBccssdgLqHnHzM8MSqj7gfjw+XU14MhL4CJeEM8YDzWCY3rAk/fIBerll0TdDzQO0ryuRtIF8YzxUCM4pgc8eY9coF5+SdT9QOMgzetqJF0QzxgPNYJjesCT98gF6uWXRN0PNA7SvK5G0gXxjPFQIzimBzx5j1ygXn5J1P1A4yDN62okXRDPGA81gmN6wJP3yAXq5ZdE3Q80DtK8rkbSBfGM8VAjOKYHPHmPXKBefknU/UDjIM3raiRdEM8YDzWCY3rAk/fIBerll0TdDzQO0ryuRtIF8YzxUCM4pgc8eY9coF5+SdT9QOMgzetqJF0QzxgPNYJjesCT98gF6uWXRN0PNA7SvK5G0gXxjPFQIzimBzx5j1ygXn5J1P1A4yDN62okXRDPGA81gmN6wJP3yAXq5ZdE3Q80DtK8rkbSBfGM8VAjOKYHPHmPXKBefknU/UDjIM3raiRdEM8YDzWCY3rAk/fIBerll0TdDzQO0ryuRtIF8YzxUCM4pgc8eY9coF5+SdT9QOMgzetqJF0QzxgPNYJjesCT98gF6uWXRN0PNA7SvK5G0gXxjPFQIzimBzx5j1ygXn5J1P1A4yDN62okXRDPGA81gmN6wJP3yAXq5ZdE3Q80DtK8rkbSBfGM8VAjOKYHPHmPXKBefknU/UDjIM3raiRdEM8YDzWCY3rAk/fIBerll0TdDzQO0ryuRtIF8YzxUCM4pgc8eY9coF5+SdT9QOMgzetqJF0QzxgPNYJjesCT98gF6uWXRN0PNA7SvK5G0gXxjPFQIzimBzx5j1ygXn5J1P1A4yDN62okXRDPGA81gmN6wJP3yAXq5ZdE3Q80DtK8rkbSBfGM8VAjOKYHPHmPFmLTe3/3V7l8/pfyS6LuB+CYFU9ehIXYcu+hKF8unzh1lSSP8VAjOKYHPHmX5mP9TXe8lCsUflar3yu/JOp+AI5Z8eRlmI/tBx6IioNDJ8rLJq+LbxKPGA81gmN6wJP3iVn91ne8nCsUf1yr3ZaJJVH3A3DMiicvBLPj0CNRabhyvDQ8elu8IJ4xHmoEx/SAJ+9UMysuu/qVfKn8/VrduswsibofgGNWPHkpmpm+/0hUGhs/Vhoc/FDzgnjGeKgRHNMDnrxXdR57Jpq44OJj+d7e79RqJuauiHhz6n4AjlnxNMvR4JwHn4h6J1e+VOwbeGDuenjHeKgRHNMDnrxbux99OhrZsed4sX/gX2rvD81dj1/HfCEl1P0AHLPiyQsCdj38VDSwdv2L+VLvp+auRioxHmoEx/SA55zdeujJaGjT1hPFoco/1t4rz12N12K+kBLqfgCOWfHkC2j34aPR8MatL+RLpb+qvZ+bsxnpxHioERzTA57xbk1/9PFoYPW6mfLY+N/UXs/PXYu5MV9ICXU/AMeseM65hGq/Tx/ZsfsnuULhC7X3inO2Ir0YDzWCY3rAE7u14yOHo96JFSd7J1c8Tfswb8wXUkLdD8AxK57Nl9Cy837jR7UL6Gu11/vnbES6MR5qBMf0gOf2gx+LSiNjs/1r1n2cdmHBmC+khLofgGNWPOMLaPKSN/2gJ5f7du21kTnbkH6MhxrBMT3gWRyqzA5v3HKQ9sAZ84WUUPcDcMyKJy6gVVdf/5+1C+i/aj+enLMJpyHFgcFT56NKcXDIvKZGLpczrylS6O2bGdm5586eJcYsqxLqfgCOWfFct/+W79YuoB/W/nl98xKcxhgPNeDI/8LeBeq5yRC/mKEooe4H4JgZz1zuf2r/e/acDTi9MR5qwJEvGheo5yZDPJLL5099iALJyBUKUaF/wLwuRy73Yk/jLwy2MeZDrwYc+aJxgXpuMsQvZihKqPsBOPKitgLP0By6Nea81IAjz8cF6rnJEL+YoSih7gfgyIvaCjxDc+jWmPNSA448Hxeo5yZD/GKGooS6H4AjL2or8AzNoVtjzksNOPJ8XKCemwzxixmKEup+AI68qK3AMzSHbo05LzXgyPNxgXpuMsQvZihKqPsBOPKitgLP0By6Nea81IAjz8cF6rnJEL+YoSih7gfgyIvaCjxDc+jWmPNSA448Hxeo5yZD/GKGooS6H4AjL2or8AzNoVtjzksNOPJ8XKCemwzxixmKEup+AI68qK3AMzSHbo05LzXgyPNxgXpuMsQvZihKqPsBOPKitgLP0By6Nea81IAjz8cF6rnJEL+YoSih7gfgyIvaCjxDc+jWmPNSA448Hxeo5yZD/GKGooS6H4AjL2or8AzNoVtjzksNOPJ8XKCemwzxixmKEup+AI68qK3AMzSHbo05LzXgyPNxgXpuMsQvZihKqPsBOPKitgLP0By6Nea81IAjz8cF6rnJEL+YoSih7gfgyIvaCjxDc+jWmPNSA448Hxeo5yZD/GKGooS6H4AjL2or8AzNoVtjzksNOPJ8XKCemwzxixmKEup+AI68qK3AMzSHbo05LzXgyPNxgXpuMsQvZihKqPsBOPKitgLP0By6Nea81IAjz8cF6rnJEL+YoSih7gfgyIvaCjxDc+jWmPNSA448Hxeo5yZD/GKGooS6H4AjL2or8AzNoVtjzksNOPJ8XKCemwzxixmKEup+AI68qK3AMzSHbo05LzXgyPNxgXpuMsQvZihKqPsBOPKitgLP0By6Nea81IAjz8cF6rnJEL+YoSih7gfgyIvaCjxDc+jWmPNSA448n4XYcu+hKF/u/f8yu7bFDEUJdT8AR15WF5s/eLC2yOUTPIgujTkvNeDIM5qP7QceiErDlah3+YpwCaUcMxQl1P0AHHlhFwIXEL7tcGmoEv9qSJZ8sYjvU+Ybc15qwJHnxOw49EhUHh2PNtx8Z3w+ISnGDEUJdT8AR17a+YgvoN23fvAndzz/7UiVax5/NuqtjJxEX7QrSWLOSw048qyamb7/SNS7bHm07u0313+Mem4yxC9mKEqo+wE48uIy8QV09jtu+Sl/6JWIL6Ctd92HXwWl8WEz56UGHHleMec8+ETUv2pttOrK6069hnpuMsQvZihKqPsBOPLyzncBbbn2hhf4Q69E8wWU4ofNnJcacOSZgV0PPxUNbjgrmrz48jmvo56bDPGLGYoS6n4AjrzAcy6ggcHqhjde/SJ/6JXgCyjFD5s5LzXgyHPbffhoVNm6Mxo/d1+057FnwiV0mmOGooS6H4AjL/FrF9BQdc2FF/+KP/RKzHcBpfhhM+elBhznzK526YztviCqbJuuX0Y8V9RzkyF+MUNRQt0PwJEXNb6Apnad9/J7v/ot88FXYaELKMUPmzkvNeDY3PfyCy+t/TZsU/23Y3wmKZ5LSFPMUJRQ9wNwNBfQ4FB1YtuOY7d/+Zvmg6+C6wJK8cNmzksNOMY9T73hmqh/5Zr6v5Dm80j5XEKaYoaihLofgCNfQKMbzjp+6xe/bj74KrS6gFL8sJnzUgOO6Hf1tTdE5fGJ+n+S57M4DecS0hQzFCXU/QAcT11AA4OzQ2vWzdz8+efNB1+F+ALactd9v+QP2Gn4sJnzUgOO6264NSpVRup/KJHPgUE9NxniFzMUJdT9ABwb/w5odmBq5cyNn/mS+eCrUL+AhiszrS6gFD9s5rzUgCP+CAX+WgafwXygnpsM8YsZihLqfgCOtSWe7V+2/OT+5z5rPvgqLOUCSuvDli+W4q+jSy5f/4up3P9CNJ4LSSv53vrfCA54kC+VjpUrozP8uiJb7/rwr/hDtRCNZ3xjLm014Mi9u0A9NxniFzMUNeDIi+AC9dxkG2K81YAjn5UL1HOTCWI81IAj9+4C9dxkiF/MUNSAIy+CC9Rzk22I8VYDjnxWLlDPTSaI8VADjty7C9RzkyF+MUNRA468CC5Qz022IcZbDTjyWblAPTeZIMZDDThy7y5Qz02G+MUMRQ048iK4QD032YYYbzXgyGflAvXcZIIYDzXgyL27QD03GeIXMxQ14MiL4AL13GQbYrzVgCOflQvUc5MJYjzUgCP37gL13GSIX8xQ1IAjL4IL1HOTbYjxVgOOfFYuUM9NJojxUAOO3LsL1HOTIX4xQ1EDjrwILlDPTbYhxlsNOPJZuUA9N5kgxkMNOHLvLlDPTYb4xQxFDTjyIrhAPTfZhhhvNeDIZ+UC9dxkghgPNeDIvbtAPTcZ4hczFDXgyIvgAvXcZBtivNWAI5+VC9RzkwliPNSAI/fuAvXcZIhfzFDUgCMvggvUc5NtiPFWA458Vi5Qz00miPFQA47cuwvUc5MhfjFDUQOOvAguUM9NtiHGWw048lm5QD03mSDGQw04cu8uUM9NhvjFDEUNOPIiuEA9N9mGGG814Mhn5QL13GSCGA814Mi9u0A9NxniFzMUNeDIi+AC9dxkG2K81YAjn5UL1HOTCWI81IAj9+4C9dxkiF/MUNSAIy+CC9Rzk22I8VYDjnxWLlDPTSaI8VADjty7C9RzkyF+MUNRA468CC5Qz022IcZbDTjyWblAPTeZIMZDDThy7y5Qz02G+MUMRQ048iK4QD032YYYbzXgyGflAvXcZIIYDzXgyL27QD03GeIXMxQ14MiL4AL13GQbYrzVgCOflQvUc5MJYjzUgCP37gL13GSIX8xQ1IAjL4IL1HOTbYjxVgOOfFYuUM9NJojxUAOO3LsL1HOTIX4xQ1EDjrwILlDPTbYhxlsNOPJZuUA9N5kgxkMNOHLvLlDPTYb4xQxFDTjyIrhAPTfZhhhvNeDIZ+UC9dxkghgPNeDIvbtAPTcZ4hczFDXgyIvgAvXcZBtivNWAI5+VC9RzkwliPNSAI/fuAvXcZIhfzFDUgCMvggvUc5NtiPFWA458Vi5Qz00miPFQA47cuwvUc5MhfjFDUQOOvAguUM9NtiHGWw048lm5QD03mSDGQw04cu8LgW9ymS+V0ziXkKaYoagBR16GhcA3scuXO7IkxlsNOPJ5LcSmOz5UzRWKL3OTCWI81IAj9z8fuIAKff1RLp/vxH51dcxQ1IAjL8R84Nv4FoeGo1JltBNLYrzVgCOf2XxsePf7qrWf7X9Rq9/LTSaI8VADjnwGTHwBrb3uprR+hRjSFDMUNeDIS8HsOPRI/fJZdeX1nVoS460GHPncmDXX3TSbL/f9rFa7jRtMGOOhBhz5HJo5dQG97cb6j1HPTYb4xQxFDTjyYjQzff+RqDw+EU1ddlUnl8R4qwFHPrtmpi6/plroH/hRrW4dN+cR46EGHPksYvgC6uB+dXXMUNSAIy9HzDkPPhH1T62Olu+7pNNLYrzVgCOfX53HnokmLvzNamm48r1azQQ35hnjoQYczZl8Yv4LqIP71dUxQ1EDjrwgYNfDT0WD686Mxnadr7AkxlsNOPIZ7n706Wh0+nXV8tj4d2rvD3FTKcR4qAFHPpeFLqAO7ldXxwxFDTjyIuw+fDSqbN4eVbbtrP9MLrAkxlsNODaf066HnoyGz9pW7Zuc+kbtvTI3lFKMhxpwbD4X1wXUwf3q6pihqAHHOYtQu3TGps+NhjacVb+MRJbEeKsBx/iMpj/6eDSwdn11YPUZX669nudmUozxUAOOi72AOrhfXR0zFDXg2LwEE+dfFPWvXlf/7RgvSAeXxHirAUecz46PHI76JldGw5u2fY6bOA0xHmrAcbEXUAf3q6tjhqIGHOMFWHHJFdXe5VP1fyHNy9HhJTHeasBx+8GPReWx8Wh0+tznuIHTFOOhBhwXewF1cL+6OmYoasARw1911fXV8uhY/T/J82IILInxVgOOpeGRaNneSz7J8qcxxkMNOC72AurgfnV1zFDUgOPa695dLQ5X6n8okZeCQT03ebpTHBia6fn1/68stQ/ayRVvuPqhnjamODBoPNTIl0r1PwnNe7QQjedCUoz50KsBRywz/loGL8R8oJ6bDOlYzDzVgCPvkAvUc5MhHsHPAj3z/OwgRS5X/4upvAwL0XguRCPmQ68GHHmHXKCemwzxixmKGnDkRXCBem4ypGMx81QDjrxDLlDPTYb4xQxFDTjyIrhAPTcZ0rGYeaoBR94hF6jnJkP8YoaiBhx5EVygnpsM6VjMPNWAI++QC9RzkyF+MUNRA468CC5Qz02GdCxmnmrAkXfIBeq5yRC/mKGoAUdeBBeo5yZDOhYzTzXgyDvkAvXcZIhfzFDUgCMvggvUc5MhHYuZpxpw5B1ygXpuMsQvZihqwJEXwQXqucmQjsXMUw048g65QD03GeIXMxQ14MiL4AL13GRIx2LmqQYceYdcoJ6bDPGLGYoacORFcIF6bjKkYzHzVAOOvEMuUM9NhvjFDEUNOPIiuEA9NxnSsZh5qgFH3iEXqOcmQ/xihqIGHHkRXKCemwzpWMw81YAj75AL1HOTIX4xQ1EDjrwILlDPTYZ0LGaeasCRd8gF6rnJEL+YoagBR14EF6jnJkM6FjNPNeDIO+QC9dxkiF/MUNSAIy+CC9RzkyEdi5mnGnDkHXKBem4yxC9mKGrAkRfBBeq5yZCOxcxTDTjyDrlAPTcZ4hczFDXgyIvgAvXcZEjHYuapBhx5h1ygnpsM8YsZihpw5EVwgXpuMqRjMfNUA468Qy5Qz02G+MUMRQ048iK4QD03GdKxmHmqAUfeIReo5yZD/GKGogYceRFcoJ6bDOlYzDzVgCPvkAvUc5MhfjFDUQOOvAguUM9NhnQsZp5qwJF3yAXquckQv5ihqAFHXgQXqOcmQzoWM0814Mg75AL13GSIX8xQ1IAjL4IL1HOTIR2LmacacOQdcoF6bjLEL2YoasCRF8EF6rnJkI7FzFMNOPIOLQS+9VS+t/ckNxniFzMUNeDIy7AQ9SUpl09wkyEdi5mnGnDkPZoPfPPN4lBldmzX6+7iJkP8YoaiBhx5IeajviSDQzNDa9e+g5sM6VjMPNWAI+8Sg28/XhoZmx3ZevaHucEQ/5ihqAFHXgqmviTDIyf6JlbcwQ2GdDRmnmrAkfepmen7j0Tl8YmTg+s3PcTNhaQTMxQ14MiLYZZkbPx4cWTsADcX0vGYeaoBR96pmHMefCLqX7lmpn9q1ae4sZD0YoaiBhx5OZqXpG9q1bHi4PDHubEQiZh5qgFH3iuw6+Gnotqvfk6Ul038JTcVkm7MUNSAIy9IvCQDa9e/VOgb+HNuKkQmZp5qwJF3a/fho1Fl687jxcro39Xez3FTIenGDEUNOM63JMNnbXux0Nf3mZ6wJMox81QDjnP267FnorHde18tDg49X3uvSP2EnIaYoagBR16S0ek9L+SK5S/1hCVRj5mnGnBs3q/lr7/0lUJf/7/WXu/nZkJOT8xQ1IBj85JMXHDxT3PF4td7wpJkIWaeasAx3q2Vb3rLy/ly+bu110a4kZDTFzMUNeAYL8mKS6/6cS6f/4+esCRZiZmnGnDEbq257qZf5QqlH9R+PMlNhJzemKGoAcf6klyz/4e1C+h7PWFJshQzTzXguP6mO17MFQo/rv3zevIPaUPMUNSA4xk3vOf7Pbncf/eEJclazDzVgGPtJ7ef1v73bJYPaU/MUNSAY+0C+t+esCSZS75Y+mUP5qdMLgfHvT0hHcn/AWVuI6DJwMZMAAAAAElFTkSuQmCC;" vertex="1" parent="1">
          <mxGeometry x="160" y="290" width="184.46" height="150" as="geometry" />
        </mxCell>
        <mxCell id="5gWIiFmokeseENjzaCDC-3" value="" style="shape=image;verticalLabelPosition=bottom;labelBackgroundColor=default;verticalAlign=top;aspect=fixed;imageAspect=0;image=https://upload.wikimedia.org/wikipedia/commons/thumb/d/d0/Google_Colaboratory_SVG_Logo.svg/1280px-Google_Colaboratory_SVG_Logo.svg.png;" vertex="1" parent="1">
          <mxGeometry x="412.16" y="256.21" width="352.84" height="217.58" as="geometry" />
        </mxCell>
        <mxCell id="5gWIiFmokeseENjzaCDC-4" value="" style="shape=image;verticalLabelPosition=bottom;labelBackgroundColor=default;verticalAlign=top;aspect=fixed;imageAspect=0;image=https://png.pngtree.com/png-vector/20220428/ourmid/pngtree-smooth-glossy-heart-vector-file-ai-and-png-png-image_4557871.png;" vertex="1" parent="1">
          <mxGeometry x="370" y="390" width="90" height="90" as="geometry" />
        </mxCell>
      </root>
    </mxGraphModel>
  </diagram>
</mxfile>
